Coordinates
version=1
nRows=14
nColumns=42
inDegrees=yes

Units are S.I. units (second, meters, Newtons, ...)
If the header above contains a line with 'inDegrees', this indicates whether rotational values are in degrees (yes) or radians (no).

endheader
time	pelvis_tilt	pelvis_list	pelvis_rotation	pelvis_tx	pelvis_ty	pelvis_tz	hip_flexion_r	hip_adduction_r	hip_rotation_r	knee_angle_r	knee_adduction_r	knee_angle_r_beta	ankle_angle_r	subtalar_angle_r	mtp_angle_r	hip_flexion_l	hip_adduction_l	hip_rotation_l	knee_angle_l	knee_adduction_l	knee_angle_l_beta	ankle_angle_l	subtalar_angle_l	mtp_angle_l	lumbar_extension	lumbar_bending	lumbar_rotation	arm_flex_r	arm_add_r	arm_rot_r	elbow_flex_r	pro_sup_r	wrist_flex_r	wrist_dev_r	arm_flex_l	arm_add_l	arm_rot_l	elbow_flex_l	pro_sup_l	wrist_flex_l	wrist_dev_l
      0.40000000	     14.48134088	     -2.82826227	      1.62864603	     -2.13573988	      0.90583503	      0.07179552	    -27.97187140	     -0.75528716	    -18.10560196	      9.04512958	     13.68056984	      0.15786729	     15.06163303	     33.51501544	     -9.49664213	     16.56463979	     -3.14291289	    -11.25054853	     18.34169190	     -4.56824254	      0.32012291	     11.67564327	      8.23613115	     -9.49664213	    -31.28519266	      3.03869690	      0.94842889	     21.81927197	    -27.22660379	     11.03955307	     66.94026820	     90.00000001	      0.00000000	      0.00000000	     -7.25189932	     -9.86285327	      8.43908228	     39.57471119	     90.00000001	      0.00000000	      0.00000000
      0.41000000	     14.40982316	     -2.97094470	      1.66430455	     -2.12720425	      0.90470370	      0.07062797	    -28.36953645	     -0.77891578	    -17.84007602	      9.33320700	     13.68293598	      0.16289519	     15.09084137	     33.54322528	     -9.48703746	     16.60903916	     -3.10949860	    -11.36693771	     18.43074324	     -4.67399390	      0.32167715	     11.77501316	      8.14392072	     -9.48703746	    -31.18752855	      3.20309233	      0.90795351	     22.12954664	    -27.30721010	     10.96419486	     67.10056694	     90.00000001	      0.00000000	      0.00000000	     -7.46291222	     -9.87614495	      8.49743250	     39.38964687	     90.00000001	      0.00000000	      0.00000000
      0.42000000	     14.34837156	     -3.05098304	      1.58532313	     -2.11854316	      0.90364687	      0.06952010	    -28.72296445	     -0.93193393	    -17.56865150	      9.76280280	     13.65448499	      0.17039305	     15.22643594	     33.59103747	     -9.46693383	     16.65710385	     -3.04999117	    -11.58851093	     19.08460789	     -4.77038589	      0.33308924	     12.15210613	      7.78205836	     -9.46693383	    -31.10507678	      3.25916904	      0.96062400	     22.35043004	    -27.42660418	     10.94682366	     67.22078416	     90.00000001	      0.00000000	      0.00000000	     -7.63013668	     -9.85357807	      8.83722302	     38.82317917	     90.00000001	      0.00000000	      0.00000000
      0.43000000	     14.18311248	     -3.16950825	      1.50670523	     -2.10974348	      0.90241141	      0.06849160	    -28.92609675	     -1.03315595	    -17.42051297	     10.31012245	     13.55514994	      0.17994558	     15.42368921	     33.76367002	     -9.43318226	     16.86208499	     -3.05993584	    -11.76140490	     20.22044982	     -4.82731791	      0.35291343	     12.68129525	      7.15329236	     -9.43318226	    -30.89251066	      3.32937186	      1.06124060	     22.40669040	    -27.50365870	     10.84263476	     67.30919901	     90.00000001	      0.00000000	      0.00000000	     -7.75083120	     -9.91433206	      9.58168599	     38.01869601	     90.00000001	      0.00000000	      0.00000000
      0.44000000	     14.02386195	     -3.28709245	      1.43603002	     -2.10089675	      0.90124657	      0.06729816	    -29.10253633	     -1.10523329	    -17.37146764	     10.90511528	     13.31493575	      0.19033017	     15.59224271	     34.12512865	     -9.39013796	     16.98084965	     -3.04121910	    -11.71124490	     21.52867225	     -4.81175455	      0.37574621	     13.20296697	      6.32407111	     -9.39013796	    -30.69831987	      3.41913930	      1.18049996	     22.39322585	    -27.54881013	     10.58900300	     67.39020989	     90.00000001	      0.00000000	      0.00000000	     -7.83783596	     -9.99823005	     10.49193343	     37.38290384	     90.00000001	      0.00000000	      0.00000000
      0.45000000	     13.87316836	     -3.32221545	      1.28087985	     -2.09190771	      0.90025091	      0.06624597	    -29.30864789	     -1.35330675	    -17.17256209	     11.48125819	     13.25831093	      0.20038576	     15.60182347	     34.31202057	     -9.37406151	     16.87784118	     -2.93628572	    -11.52598403	     22.64436930	     -4.72972978	      0.39521880	     13.60005659	      5.68490289	     -9.37406151	    -30.52676323	      3.36220562	      1.27124206	     22.33525828	    -27.52708258	     10.39380066	     67.34384778	     90.00000001	      0.00000000	      0.00000000	     -7.90170376	    -10.10935762	     10.78084168	     37.00690459	     90.00000001	      0.00000000	      0.00000000
      0.46000000	     13.63245000	     -3.39354991	      1.14204851	     -2.08278882	      0.89908820	      0.06508263	    -29.36212627	     -1.50651145	    -17.20675309	     12.21696639	     12.99464659	      0.21322629	     15.77071345	     34.58875154	     -9.34797010	     16.93831631	     -2.88527662	    -11.44466982	     24.09479144	     -4.60599953	      0.42053344	     14.16968999	      4.39402774	     -9.34797010	    -30.23867345	      3.37256696	      1.46777219	     22.09715868	    -27.50609434	     10.00750388	     67.31862754	     90.00000001	      0.00000000	      0.00000000	     -7.81686798	    -10.23014025	     10.96572952	     36.85925580	     90.00000001	      0.00000000	      0.00000000
      0.47000000	     13.41555678	     -3.37603210	      1.01190479	     -2.07357500	      0.89826024	      0.06388332	    -29.49794232	     -1.69131422	    -16.85044821	     12.64709874	     12.72167360	      0.22073351	     15.69091210	     34.69900902	     -9.34275677	     16.63968835	     -2.63280608	    -11.11677477	     24.81896153	     -4.58165397	      0.43317260	     14.24674213	      4.17641983	     -9.34275677	    -29.98107734	      3.27044408	      1.58649844	     21.80236025	    -27.52744577	      9.92004531	     67.16744472	     90.00000001	      0.00000000	      0.00000000	     -7.63381341	    -10.42232054	     10.84226833	     36.96249655	     90.00000001	      0.00000000	      0.00000000
      0.48000000	     13.20770055	     -3.35922683	      0.88563616	     -2.06443668	      0.89731608	      0.06256021	    -29.46079872	     -1.97475748	    -17.58988779	     13.83592959	     12.33542911	      0.24148253	     16.00030831	     35.68874635	     -9.23246064	     16.50740867	     -2.50591208	    -10.54178472	     26.13682513	     -4.04993609	      0.45617365	     14.43279221	      1.01504599	     -9.23246064	    -29.77121088	      3.19071339	      1.71154011	     21.43834201	    -27.32402307	      9.20544699	     67.09620255	     90.00000001	      0.00000000	      0.00000000	     -7.36198393	    -10.37015154	      9.46103810	     37.28908533	     90.00000001	      0.00000000	      0.00000000
      0.49000000	     12.99001725	     -3.28933366	      0.67234390	     -2.05502901	      0.89653627	      0.06135487	    -29.50896396	     -2.31879973	    -17.39389768	     14.58088600	     12.15587448	      0.25448447	     15.93967138	     35.60081949	     -9.20556546	     16.30033089	     -2.36659233	    -10.82590207	     27.08740040	     -3.95496736	      0.47276432	     14.68317047	      0.28895291	     -9.20556546	    -29.51841965	      3.00503028	      1.88992084	     20.99319351	    -27.23560771	      8.84126189	     66.89003446	     90.00000001	      0.00000000	      0.00000000	     -7.09825579	    -10.53600668	      8.88356059	     37.75603765	     90.00000001	      0.00000000	      0.00000000
      0.50000000	     12.78993594	     -3.22037522	      0.47848832	     -2.04559658	      0.89589926	      0.06014930	    -29.53105099	     -2.61567813	    -17.28378264	     15.39184309	     11.86772164	      0.26863834	     15.88247059	     35.57510080	     -9.17666557	     16.08624319	     -2.25324339	    -11.17702454	     27.93648320	     -3.91279383	      0.48758361	     14.81178051	     -0.32717111	     -9.17666557	    -29.29714264	      2.80995040	      2.05261073	     20.48184466	    -27.08350168	      8.44364378	     66.63786626	     90.00000001	      0.00000000	      0.00000000	     -6.76055609	    -10.63745853	      8.04050777	     38.11447296	     90.00000001	      0.00000000	      0.00000000
      0.51000000	     12.62694564	     -3.10853213	      0.30023014	     -2.03610160	      0.89542539	      0.05883436	    -29.54440106	     -2.96149750	    -17.21358360	     16.30456114	     11.57162975	      0.28456828	     15.73326298	     35.55305776	     -9.14553772	     15.85652120	     -2.14630597	    -11.67861474	     28.70787273	     -3.89793024	      0.50104690	     14.83002185	     -0.75678270	     -9.14553772	    -29.12448377	      2.57266874	      2.17005251	     19.92982400	    -26.93530002	      8.06105626	     66.31951051	     90.00000001	      0.00000000	      0.00000000	     -6.40353026	    -10.69775683	      7.16690636	     38.33085727	     90.00000001	      0.00000000	      0.00000000
      0.52000000	     12.49245397	     -2.99757090	      0.12316016	     -2.02659027	      0.89513994	      0.05764691	    -29.54764796	     -3.30782761	    -17.07451591	     17.26380828	     11.34271955	      0.30131030	     15.41311323	     35.44808126	     -9.12515663	     15.62836591	     -2.11199417	    -12.14447527	     29.43758471	     -3.83280409	      0.51378278	     14.76182792	     -0.98229948	     -9.12515663	    -28.98740160	      2.29671041	      2.27066345	     19.33640103	    -26.75740824	      7.81543548	     65.94067883	     90.00000001	      0.00000000	      0.00000000	     -6.01125073	    -10.82398545	      6.63545477	     38.42539116	     90.00000001	      0.00000000	      0.00000000
      0.53000000	     12.39883096	     -2.87230429	      0.00656906	     -2.01711106	      0.89502056	      0.05613464	    -29.57841237	     -3.62428698	    -16.72336928	     18.11776611	     11.06051974	      0.31621467	     15.04192583	     35.36543778	     -9.11707729	     15.38559022	     -2.01897729	    -12.24118942	     30.13302865	     -3.74032284	      0.52592056	     14.58297470	     -1.00811313	     -9.11707729	    -28.90572024	      2.06287857	      2.31695742	     18.72692049	    -26.63304371	      7.72220923	     65.55006132	     90.00000001	      0.00000000	      0.00000000	     -5.58606987	    -10.93677296	      6.40336287	     38.47848173	     90.00000001	      0.00000000	      0.00000000
